# xmcd
#
# Track frame offsets:
#	150
#	15909
#	31623
#	51750
#	69892
#	88145
#	107776
#	128444
#	147956
#	162820
#	177892
#
# Disc length: 2650 seconds
#
# Revision: 0
# Processed by: cddbd v1.5.2PL0 Copyright (c) Steve Scherf et al.
# Submitted via: audiograbber 1.83.01
#
DISCID=7c0a580b
DTITLE=KIM TAYLOR - LOVE'S A DOG
DYEAR=2013
DGENRE=Ballad
TTITLE0=OPEN
TTITLE1=LIKE A WOMAN CAN
TTITLE2=YOUR BLEEDING HEART
TTITLE3=LOVE'S A DOG
TTITLE4=YOU ARE SO BEAUTIFUL
TTITLE5=TIME AND AGAIN
TTITLE6=WE ARE WASHED
TTITLE7=WHEN I LAY DOWN
TTITLE8=AMERICAN CHILD
TTITLE9=TAKE WHAT YOU WANT FROM ME
TTITLE10=TRAINWRECK
EXTD=
EXTT0=
EXTT1=
EXTT2=
EXTT3=
EXTT4=
EXTT5=
EXTT6=
EXTT7=
EXTT8=
EXTT9=
EXTT10=
PLAYORDER=
